<svg width="24" height="30" viewBox="0 0 24 30" fill="none" xmlns="http://www.w3.org/2000/svg">
<path d="M21.4699 19.2025C20.398 18.829 19.9371 19.5138 19.4333 20.0325C17.043 22.4395 15.9282 22.4602 13.4843 20.1466C13.2378 19.908 12.9698 19.6798 12.6911 19.4723C12.5625 19.3685 12.391 19.3166 12.0266 19.1299C11.5657 19.493 11.0083 19.8665 10.5366 20.3334C8.01772 22.8752 4.63057 22.1801 3.53725 18.8498C3.26928 18.0509 3.12994 17.1898 3.09778 16.3494C3.01203 14.2537 3.07634 12.1476 2.97987 10.0519C2.72262 4.491 6.52781 1.24368 11.0083 0.372194C13.9024 -0.188047 16.8072 -0.105048 19.712 0.548567C20.4944 3.93076 20.4944 7.16771 19.2189 10.332C17.5575 14.4301 13.956 16.7852 9.8828 16.4947C6.62427 16.2664 5.29514 13.7869 7.01015 11.079C8.67157 8.47494 10.8475 6.36885 13.6665 4.92675C14.1275 4.6985 14.6848 4.657 15.1993 4.5325C15.2958 4.68812 15.403 4.84375 15.4995 4.99937C15.0493 5.42474 14.642 5.8916 14.1596 6.28585C12.6054 7.56195 10.9868 8.78618 9.47548 10.1142C8.88595 10.6329 8.43576 11.3488 8.04988 12.0439C7.0959 13.7661 7.73903 14.9177 9.78633 15.0837C12.5625 15.3016 14.8456 14.3056 16.5392 12.158C18.1792 10.0934 18.758 7.68645 18.7366 5.12387C18.7258 4.05526 18.7366 2.99703 18.7366 2.06329C14.9314 0.403319 8.30713 1.83505 6.0133 4.75037C5.33802 5.62186 4.7056 6.77347 4.66273 7.81095C4.5341 11.1413 4.68417 14.4923 4.76992 17.8227C4.78064 18.2584 4.97358 18.7149 5.16651 19.1195C5.86324 20.5824 7.52466 20.9559 8.81092 19.9599C9.12176 19.7109 9.37901 19.3893 9.66842 19.1091C11.2119 17.5425 13.0127 17.5218 14.5669 19.0573C15.3387 19.825 16.0033 20.7795 16.9572 20.4786C18.0184 19.5449 18.7151 18.7668 19.5726 18.1962C21.3305 17.0238 22.9705 17.8123 23.1849 19.8769C23.3992 21.9518 22.4989 23.7052 21.1804 25.168C17.7075 28.9964 13.1413 29.6603 8.31785 28.6229C3.71947 27.6165 1.24342 24.4107 0.0429126 20.1881C-0.0535569 19.8354 0.0321938 19.4411 0.0321938 19.0365C1.09336 18.7045 1.10408 19.4619 1.29702 20.0118C2.0259 22.1697 3.37647 23.9127 5.1022 25.4274C8.65013 28.5399 17.1502 28.9756 20.9875 22.9375C21.8557 21.5784 21.9522 20.6965 21.4591 19.1921L21.4699 19.2025Z" fill="#3B5941"/>
</svg>
